<?xml version="1.0" encoding="UTF-8"?>
<svg id="Layer_2" data-name="Layer 2" xmlns="http://www.w3.org/2000/svg" viewBox="0 0 99.77 87.31">
  <defs>
    <style>
      .cls-1 {
        fill: #fff;
      }

      .cls-2 {
        fill: none;
        stroke: #fff;
        stroke-miterlimit: 10;
        stroke-width: 4px;
      }
    </style>
  </defs>
  <g id="Layer_1-2" data-name="Layer 1">
    <g>
      <path class="cls-1" d="m19.13,13.41h-4.87v-2.31h12.47v2.31h-4.87v12.39h-2.73v-12.39Z"/>
      <path class="cls-1" d="m27.53,18.45c0-4.35,3.36-7.56,7.92-7.56s7.92,3.19,7.92,7.56-3.36,7.56-7.92,7.56-7.92-3.21-7.92-7.56Zm13.08,0c0-3-2.2-5.17-5.17-5.17s-5.17,2.16-5.17,5.17,2.2,5.17,5.17,5.17,5.17-2.16,5.17-5.17Z"/>
      <path class="cls-1" d="m52.06,11.1h6.42c4.77,0,8.02,2.94,8.02,7.35s-3.25,7.35-8.02,7.35h-6.42v-14.7Zm6.3,12.39c3.28,0,5.4-1.99,5.4-5.04s-2.12-5.04-5.4-5.04h-3.57v10.08h3.57Z"/>
      <path class="cls-1" d="m68.36,18.45c0-4.35,3.36-7.56,7.92-7.56s7.92,3.19,7.92,7.56-3.36,7.56-7.92,7.56-7.92-3.21-7.92-7.56Zm13.08,0c0-3-2.2-5.17-5.17-5.17s-5.17,2.16-5.17,5.17,2.2,5.17,5.17,5.17,5.17-2.16,5.17-5.17Z"/>
      <path class="cls-1" d="m34.05,43.65c0-4.35,3.36-7.56,7.92-7.56s7.92,3.19,7.92,7.56-3.36,7.56-7.92,7.56-7.92-3.21-7.92-7.56Zm13.08,0c0-3-2.2-5.17-5.17-5.17s-5.17,2.16-5.17,5.17,2.2,5.17,5.17,5.17,5.17-2.16,5.17-5.17Z"/>
      <path class="cls-1" d="m62.4,51l-3-4.3c-.19.02-.38.02-.57.02h-3.32v4.28h-2.73v-14.7h6.05c3.86,0,6.26,1.97,6.26,5.23,0,2.23-1.13,3.86-3.13,4.64l3.38,4.83h-2.94Zm-3.7-12.39h-3.19v5.86h3.19c2.39,0,3.63-1.09,3.63-2.94s-1.24-2.92-3.63-2.92Z"/>
      <path class="cls-1" d="m12.29,74.71c0-.9.71-1.62,1.7-1.62s1.66.71,1.66,1.62-.69,1.64-1.66,1.64-1.7-.73-1.7-1.64Zm.15-13.21h3.11l-.52,9.83h-2.08l-.5-9.83Z"/>
      <path class="cls-1" d="m22.26,63.81h-4.87v-2.31h12.47v2.31h-4.87v12.39h-2.73v-12.39Z"/>
      <path class="cls-1" d="m30.66,68.85c0-4.35,3.36-7.56,7.92-7.56s7.92,3.19,7.92,7.56-3.36,7.56-7.92,7.56-7.92-3.21-7.92-7.56Zm13.08,0c0-3-2.2-5.17-5.17-5.17s-5.17,2.16-5.17,5.17,2.2,5.17,5.17,5.17,5.17-2.16,5.17-5.17Z"/>
      <path class="cls-1" d="m55.19,61.5h6.42c4.77,0,8.02,2.94,8.02,7.35s-3.25,7.35-8.02,7.35h-6.42v-14.7Zm6.3,12.39c3.28,0,5.4-1.99,5.4-5.04s-2.12-5.04-5.4-5.04h-3.57v10.08h3.57Z"/>
      <path class="cls-1" d="m71.49,68.85c0-4.35,3.36-7.56,7.92-7.56s7.92,3.19,7.92,7.56-3.36,7.56-7.92,7.56-7.92-3.21-7.92-7.56Zm13.08,0c0-3-2.2-5.17-5.17-5.17s-5.17,2.16-5.17,5.17,2.2,5.17,5.17,5.17,5.17-2.16,5.17-5.17Z"/>
    </g>
    <rect class="cls-2" x="2" y="2" width="95.77" height="83.31"/>
  </g>
</svg>