<?xml version="1.0" encoding="UTF-8"?>
<svg id="Layer_2" data-name="Layer 2" xmlns="http://www.w3.org/2000/svg" viewBox="0 0 108.41 93.38">
  <defs>
    <style>
      .cls-1 {
        fill: #fff;
      }

      .cls-2 {
        fill: none;
        stroke: #fff;
        stroke-miterlimit: 10;
      }
    </style>
  </defs>
  <g id="Layer_1-2" data-name="Layer 1">
    <g>
      <path class="cls-1" d="m22.65,12.84h-5.57v-2.64h14.26v2.64h-5.57v14.16h-3.12v-14.16Z"/>
      <path class="cls-1" d="m32.25,18.6c0-4.97,3.84-8.64,9.05-8.64s9.05,3.65,9.05,8.64-3.84,8.64-9.05,8.64-9.05-3.67-9.05-8.64Zm14.95,0c0-3.43-2.52-5.9-5.9-5.9s-5.9,2.47-5.9,5.9,2.52,5.9,5.9,5.9,5.9-2.47,5.9-5.9Z"/>
      <path class="cls-1" d="m75.21,22.44c0,2.88-2.26,4.56-6.58,4.56h-8.35V10.2h7.87c4.03,0,6.19,1.7,6.19,4.37,0,1.73-.86,3-2.16,3.7,1.8.58,3.02,1.99,3.02,4.18Zm-11.81-9.79v4.63h4.42c2.16,0,3.38-.77,3.38-2.3s-1.22-2.33-3.38-2.33h-4.42Zm8.66,9.48c0-1.68-1.27-2.42-3.62-2.42h-5.04v4.85h5.04c2.35,0,3.62-.74,3.62-2.42Z"/>
      <path class="cls-1" d="m91.15,24.39v2.62h-12.6V10.2h12.27v2.62h-9.15v4.37h8.11v2.57h-8.11v4.63h9.48Z"/>
      <path class="cls-1" d="m36.86,47.4c0-4.97,3.84-8.64,9.05-8.64s9.05,3.65,9.05,8.64-3.84,8.64-9.05,8.64-9.05-3.67-9.05-8.64Zm14.95,0c0-3.43-2.52-5.9-5.9-5.9s-5.9,2.47-5.9,5.9,2.52,5.9,5.9,5.9,5.9-2.47,5.9-5.9Z"/>
      <path class="cls-1" d="m69.26,55.8l-3.43-4.92c-.22.02-.43.02-.65.02h-3.79v4.9h-3.12v-16.8h6.91c4.42,0,7.15,2.26,7.15,5.98,0,2.54-1.3,4.42-3.58,5.3l3.86,5.52h-3.36Zm-4.22-14.16h-3.65v6.7h3.65c2.74,0,4.15-1.25,4.15-3.36s-1.42-3.34-4.15-3.34Z"/>
      <path class="cls-1" d="m14.83,82.9c0-1.03.82-1.85,1.94-1.85s1.9.82,1.9,1.85-.79,1.87-1.9,1.87-1.94-.84-1.94-1.87Zm.17-15.1h3.55l-.6,11.23h-2.38l-.58-11.23Z"/>
      <path class="cls-1" d="m26.23,70.44h-5.57v-2.64h14.26v2.64h-5.57v14.16h-3.12v-14.16Z"/>
      <path class="cls-1" d="m35.83,76.2c0-4.97,3.84-8.64,9.05-8.64s9.05,3.65,9.05,8.64-3.84,8.64-9.05,8.64-9.05-3.67-9.05-8.64Zm14.95,0c0-3.43-2.52-5.9-5.9-5.9s-5.9,2.47-5.9,5.9,2.52,5.9,5.9,5.9,5.9-2.47,5.9-5.9Z"/>
      <path class="cls-1" d="m78.79,80.04c0,2.88-2.26,4.56-6.58,4.56h-8.35v-16.8h7.87c4.03,0,6.19,1.7,6.19,4.37,0,1.73-.86,3-2.16,3.7,1.8.58,3.02,1.99,3.02,4.18Zm-11.81-9.79v4.63h4.42c2.16,0,3.38-.77,3.38-2.3s-1.22-2.33-3.38-2.33h-4.42Zm8.66,9.48c0-1.68-1.27-2.42-3.62-2.42h-5.04v4.85h5.04c2.35,0,3.62-.74,3.62-2.42Z"/>
      <path class="cls-1" d="m94.72,81.99v2.62h-12.6v-16.8h12.27v2.62h-9.15v4.37h8.11v2.57h-8.11v4.63h9.48Z"/>
    </g>
    <rect class="cls-2" x=".5" y=".5" width="107.41" height="92.38"/>
  </g>
</svg>